<svg xmlns="http://www.w3.org/2000/svg" viewBox="0 6 252 232">
  <!-- quinde · colibrí — variante para tema oscuro -->
  <g>
    <path fill="#d9e6f2" d="
      M14 74
      C 48 70, 76 78, 94 90
      C 104 78, 122 74, 136 84
      C 172 92, 196 124, 204 158
      C 222 168, 236 186, 242 206
      C 224 200, 210 192, 200 182
      C 202 198, 208 214, 218 228
      C 198 220, 184 204, 178 186
      C 156 176, 130 160, 114 138
      C 102 124, 96 110, 94 100
      C 72 92, 44 84, 14 74
      Z"/>
    <path fill="#6d9cc4" d="
      M124 100
      C 144 56, 180 30, 214 24
      C 202 58, 180 92, 150 118
      C 138 128, 124 116, 124 100
      Z"/>
    <circle cx="118" cy="92" r="5" fill="#101b27"/>
  </g>
</svg>
